<svg width="48" height="48" viewBox="0 0 48 48" fill="none" xmlns="http://www.w3.org/2000/svg">
<path d="M24 34H24.02" stroke="#155DFC" stroke-width="4" stroke-linecap="round" stroke-linejoin="round"/>
<path d="M30 4H12C10.9391 4 9.92172 4.42143 9.17157 5.17157C8.42143 5.92172 8 6.93913 8 8V40C8 41.0609 8.42143 42.0783 9.17157 42.8284C9.92172 43.5786 10.9391 44 12 44H36C37.0609 44 38.0783 43.5786 38.8284 42.8284C39.5786 42.0783 40 41.0609 40 40V14L30 4Z" stroke="#155DFC" stroke-width="4" stroke-linecap="round" stroke-linejoin="round"/>
<path d="M18.2 18.0003C18.6799 16.6776 19.6095 15.5656 20.8262 14.8588C22.0429 14.152 23.4694 13.8953 24.8562 14.1335C26.243 14.3718 27.5019 15.0899 28.4129 16.1624C29.3239 17.2348 29.829 18.5933 29.84 20.0003C29.84 24.0003 23.84 26.0003 23.84 26.0003" stroke="#155DFC" stroke-width="4" stroke-linecap="round" stroke-linejoin="round"/>
</svg>
